<?xml version="1.0" standalone="no"?>
<!DOCTYPE svg PUBLIC "-//W3C//DTD SVG 20010904//EN"
 "http://www.w3.org/TR/2001/REC-SVG-20010904/DTD/svg10.dtd">
<svg version="1.0" xmlns="http://www.w3.org/2000/svg"
 width="908.000000pt" height="908.000000pt" viewBox="0 0 908.000000 908.000000"
 preserveAspectRatio="xMidYMid meet">
<metadata>
Created by potrace 1.11, written by Peter Selinger 2001-2013
</metadata>
<g transform="translate(0.000000,908.000000) scale(0.100000,-0.100000)"
fill="#000000" stroke="none">
<path d="M4570 8601 c0 -9 -71 -137 -100 -181 -6 -8 -13 -22 -17 -30 -4 -8 -9
-17 -12 -20 -3 -3 -13 -19 -22 -35 -34 -66 -64 -120 -69 -125 -3 -3 -11 -16
-19 -30 -8 -14 -30 -52 -49 -85 -19 -33 -46 -80 -60 -105 -14 -25 -35 -61 -47
-80 -12 -19 -25 -42 -29 -50 -4 -8 -12 -24 -19 -35 -7 -11 -39 -66 -71 -123
-32 -56 -62 -105 -67 -108 -5 -3 -7 -9 -4 -14 3 -4 -2 -13 -10 -20 -8 -7 -15
-19 -15 -26 0 -8 -3 -14 -7 -14 -5 0 -17 -19 -28 -43 -11 -23 -23 -44 -26 -47
-4 -3 -19 -30 -35 -60 -15 -30 -31 -57 -34 -60 -4 -3 -20 -30 -35 -60 -16 -30
-35 -62 -41 -70 -7 -8 -26 -40 -41 -70 -37 -68 -57 -104 -63 -110 -3 -3 -16
-25 -29 -50 -13 -25 -28 -50 -33 -57 -5 -7 -17 -27 -27 -45 -10 -18 -44 -78
-76 -133 -32 -55 -65 -113 -73 -130 -9 -16 -18 -32 -22 -35 -3 -3 -30 -48 -59
-100 -103 -182 -104 -184 -281 -490 -62 -107 -120 -206 -129 -220 -8 -14 -22
-38 -31 -55 -9 -16 -27 -48 -40 -70 -13 -22 -30 -53 -38 -70 -9 -16 -18 -32
-21 -35 -10 -8 -91 -152 -91 -161 0 -5 -4 -9 -10 -9 -5 0 -10 -4 -10 -10 0 -5
-24 -49 -53 -97 -30 -49 -65 -109 -79 -133 -14 -25 -36 -63 -48 -85 -65 -112
-109 -197 -196 -375 -52 -107 -99 -204 -104 -215 -4 -11 -15 -36 -23 -55 -51
-117 -121 -299 -131 -341 -2 -8 -11 -32 -20 -52 -8 -20 -13 -37 -11 -37 3 0 0
-12 -6 -27 -11 -30 -45 -154 -53 -193 -2 -14 -9 -45 -15 -70 -32 -142 -36
-505 -7 -677 26 -155 38 -213 47 -243 6 -19 12 -42 13 -50 9 -51 59 -208 102
-320 56 -144 212 -437 264 -497 5 -7 10 -15 10 -17 0 -5 30 -47 78 -111 20
-27 90 -113 117 -144 70 -81 318 -321 332 -321 3 0 25 -18 51 -39 53 -44 235
-169 260 -179 10 -3 33 -17 52 -30 19 -13 87 -48 150 -78 63 -30 123 -59 134
-65 10 -6 27 -12 38 -14 10 -2 33 -11 50 -20 17 -8 38 -15 48 -15 9 0 20 -4
25 -9 13 -11 209 -68 300 -87 11 -2 31 -6 45 -9 14 -3 40 -8 59 -11 87 -15 84
-13 83 -53 -1 -46 56 -69 188 -76 193 -10 278 -6 421 19 47 9 110 18 139 21
66 7 70 9 70 48 l0 32 118 23 c64 12 159 35 210 51 51 16 94 29 95 29 5 1 43
14 62 22 34 14 90 35 95 36 33 6 246 112 340 169 47 28 96 58 110 66 25 15
207 146 226 164 6 5 33 28 60 50 64 53 217 206 279 278 28 33 55 64 60 70 6 7
22 28 35 47 13 19 29 40 36 45 18 16 144 211 144 223 0 6 4 12 9 14 11 4 108
191 154 300 34 79 94 241 102 278 2 8 9 31 15 50 11 37 39 151 44 186 2 11 9
45 15 75 6 30 13 77 16 104 4 28 8 64 11 80 11 85 13 342 3 435 -11 102 -16
135 -19 135 -1 0 -3 9 -4 20 -2 16 -13 64 -21 95 -8 30 -16 76 -13 81 2 3 -2
12 -8 20 -6 8 -17 37 -23 64 -7 28 -17 59 -21 70 -5 11 -19 49 -31 85 -12 36
-27 79 -34 95 -6 17 -18 46 -25 65 -7 19 -24 59 -37 88 -12 29 -23 55 -23 58
0 3 -13 32 -29 64 -16 32 -27 60 -25 63 3 2 -2 10 -11 17 -8 7 -15 18 -15 25
0 27 -296 581 -360 675 -10 14 -59 97 -110 185 -122 211 -126 217 -218 380
-28 50 -56 95 -62 102 -5 7 -10 14 -10 17 0 3 -31 59 -70 125 -38 66 -70 124
-70 129 0 6 -3 12 -8 14 -6 2 -104 169 -199 338 -11 19 -33 58 -50 85 -85 142
-117 201 -115 208 1 4 -2 7 -8 7 -5 0 -10 5 -10 11 0 6 -20 43 -44 83 -60 98
-161 270 -161 276 0 3 -8 16 -17 30 -35 55 -88 152 -88 161 0 5 -4 9 -10 9 -5
0 -10 5 -10 10 0 6 -11 27 -23 48 -13 20 -41 69 -62 107 -21 39 -41 72 -44 75
-5 4 -18 26 -65 115 -6 11 -13 22 -16 25 -3 3 -11 16 -18 30 -7 14 -20 39 -31
55 -23 38 -55 94 -94 165 -17 30 -34 57 -39 58 -4 2 -8 7 -8 12 0 4 -41 79
-91 166 -51 88 -117 204 -149 258 -51 91 -80 125 -80 97z"/>
</g>
</svg>
