<svg xmlns="http://www.w3.org/2000/svg" viewBox="0 0 646.53 907.76"><defs><style>.cls-1{fill:#80d4ff;stroke:#80d4ff;stroke-miterlimit:10;stroke-width:12px;}.cls-2{fill:#fff;}</style></defs><title>Gota Logo H2O</title><g id="Capa_3" data-name="Capa 3"><path class="cls-1" d="M514.2,382.11,327.2,58.22l-187,323.89S65.83,497.82,65.83,573.35c0,144.35,117,261.37,261.37,261.37s261.37-117,261.37-261.37C588.57,497.82,514.2,382.11,514.2,382.11Z"/></g><g id="Capa_4" data-name="Capa 4"><path class="cls-2" d="M395.59,483.9C379.5,469.82,377.49,494,377.49,494v84.48H274.9V479.49H262.83l-40.23,36.59V628.72L289,683l-.8,162.76.37,0a8.11,8.11,0,0,1,6.59,3c12.27-.11,24.51,2.07,36.78,1,12.62-1.1,24.82-4.63,37.52-5.12V687.05l62.36-60.34V520.1Z"/></g></svg>